<?xml version="1.0" encoding="UTF-8" standalone="no"?>
<!-- Created with Inkscape (http://www.inkscape.org/) -->

<svg
   version="1.1"
   id="svg1"
   width="800"
   height="800"
   viewBox="0 0 800 800"
   sodipodi:docname="man-relaxing-in-a-sofa.svg"
   inkscape:version="1.3.2 (091e20e, 2023-11-25, custom)"
   xmlns:inkscape="http://www.inkscape.org/namespaces/inkscape"
   xmlns:sodipodi="http://sodipodi.sourceforge.net/DTD/sodipodi-0.dtd"
   xmlns="http://www.w3.org/2000/svg"
   xmlns:svg="http://www.w3.org/2000/svg">
  <defs
     id="defs1">
    <clipPath
       clipPathUnits="userSpaceOnUse"
       id="clipPath3">
      <path
         d="M 0,600 H 600 V 0 H 0 Z"
         transform="translate(-299.57031,-559.80031)"
         id="path3" />
    </clipPath>
    <clipPath
       clipPathUnits="userSpaceOnUse"
       id="clipPath5">
      <path
         d="M 0,600 H 600 V 0 H 0 Z"
         transform="translate(-299.57131,-81.4648)"
         id="path5" />
    </clipPath>
    <clipPath
       clipPathUnits="userSpaceOnUse"
       id="clipPath7">
      <path
         d="M 0,600 H 600 V 0 H 0 Z"
         id="path7" />
    </clipPath>
    <clipPath
       clipPathUnits="userSpaceOnUse"
       id="clipPath9">
      <path
         d="M 0,600 H 600 V 0 H 0 Z"
         transform="translate(-98.8315,-278.55271)"
         id="path9" />
    </clipPath>
    <clipPath
       clipPathUnits="userSpaceOnUse"
       id="clipPath11">
      <path
         d="M 0,600 H 600 V 0 H 0 Z"
         id="path11" />
    </clipPath>
    <clipPath
       clipPathUnits="userSpaceOnUse"
       id="clipPath13">
      <path
         d="M 0,600 H 600 V 0 H 0 Z"
         transform="translate(-258.01951,-289.3906)"
         id="path13" />
    </clipPath>
    <clipPath
       clipPathUnits="userSpaceOnUse"
       id="clipPath15">
      <path
         d="M 0,600 H 600 V 0 H 0 Z"
         transform="translate(-209.41111,-422.47121)"
         id="path15" />
    </clipPath>
    <clipPath
       clipPathUnits="userSpaceOnUse"
       id="clipPath17">
      <path
         d="M 0,600 H 600 V 0 H 0 Z"
         transform="translate(-249.02931,-123.86331)"
         id="path17" />
    </clipPath>
    <clipPath
       clipPathUnits="userSpaceOnUse"
       id="clipPath19">
      <path
         d="M 0,600 H 600 V 0 H 0 Z"
         transform="translate(-452.95701,-308.57231)"
         id="path19" />
    </clipPath>
    <clipPath
       clipPathUnits="userSpaceOnUse"
       id="clipPath21">
      <path
         d="M 0,600 H 600 V 0 H 0 Z"
         transform="translate(-236.37501,-257.2402)"
         id="path21" />
    </clipPath>
    <clipPath
       clipPathUnits="userSpaceOnUse"
       id="clipPath23">
      <path
         d="M 0,600 H 600 V 0 H 0 Z"
         transform="translate(-377.05661,-126.79491)"
         id="path23" />
    </clipPath>
    <clipPath
       clipPathUnits="userSpaceOnUse"
       id="clipPath25">
      <path
         d="M 0,600 H 600 V 0 H 0 Z"
         transform="translate(-202.14991,-293.65431)"
         id="path25" />
    </clipPath>
    <clipPath
       clipPathUnits="userSpaceOnUse"
       id="clipPath27">
      <path
         d="M 0,600 H 600 V 0 H 0 Z"
         transform="translate(-162.43311,-297.42771)"
         id="path27" />
    </clipPath>
    <clipPath
       clipPathUnits="userSpaceOnUse"
       id="clipPath29">
      <path
         d="M 0,600 H 600 V 0 H 0 Z"
         transform="translate(-263.12301,-87.027302)"
         id="path29" />
    </clipPath>
    <clipPath
       clipPathUnits="userSpaceOnUse"
       id="clipPath31">
      <path
         d="M 0,600 H 600 V 0 H 0 Z"
         transform="translate(-172.1865,-439.76861)"
         id="path31" />
    </clipPath>
    <clipPath
       clipPathUnits="userSpaceOnUse"
       id="clipPath33">
      <path
         d="M 0,600 H 600 V 0 H 0 Z"
         transform="translate(-361.75981,-90.228505)"
         id="path33" />
    </clipPath>
    <clipPath
       clipPathUnits="userSpaceOnUse"
       id="clipPath35">
      <path
         d="M 0,600 H 600 V 0 H 0 Z"
         transform="translate(-197.3281,-488.88671)"
         id="path35" />
    </clipPath>
    <clipPath
       clipPathUnits="userSpaceOnUse"
       id="clipPath37">
      <path
         d="M 0,600 H 600 V 0 H 0 Z"
         transform="translate(-199.58151,-475.40581)"
         id="path37" />
    </clipPath>
    <clipPath
       clipPathUnits="userSpaceOnUse"
       id="clipPath39">
      <path
         d="M 0,600 H 600 V 0 H 0 Z"
         transform="translate(-202.126,-442.52391)"
         id="path39" />
    </clipPath>
    <clipPath
       clipPathUnits="userSpaceOnUse"
       id="clipPath41">
      <path
         d="M 0,600 H 600 V 0 H 0 Z"
         id="path41" />
    </clipPath>
    <clipPath
       clipPathUnits="userSpaceOnUse"
       id="clipPath43">
      <path
         d="M 0,600 H 600 V 0 H 0 Z"
         transform="translate(-177.1387,-341.88771)"
         id="path43" />
    </clipPath>
    <clipPath
       clipPathUnits="userSpaceOnUse"
       id="clipPath45">
      <path
         d="M 0,600 H 600 V 0 H 0 Z"
         transform="translate(-351.32321,-452.43121)"
         id="path45" />
    </clipPath>
    <clipPath
       clipPathUnits="userSpaceOnUse"
       id="clipPath47">
      <path
         d="M 0,600 H 600 V 0 H 0 Z"
         transform="translate(-351.32231,-534.72171)"
         id="path47" />
    </clipPath>
  </defs>
  <sodipodi:namedview
     id="namedview1"
     pagecolor="#ffffff"
     bordercolor="#000000"
     borderopacity="0.25"
     inkscape:showpageshadow="2"
     inkscape:pageopacity="0.0"
     inkscape:pagecheckerboard="0"
     inkscape:deskcolor="#d1d1d1"
     inkscape:zoom="0.7625"
     inkscape:cx="399.34426"
     inkscape:cy="400"
     inkscape:window-width="1440"
     inkscape:window-height="830"
     inkscape:window-x="-6"
     inkscape:window-y="-6"
     inkscape:window-maximized="1"
     inkscape:current-layer="g1">
    <inkscape:page
       x="0"
       y="0"
       inkscape:label="1"
       id="page1"
       width="800"
       height="800"
       margin="108.61974 44.261333 53.599998 43.116535"
       bleed="0" />
  </sodipodi:namedview>
  <g
     id="g1"
     inkscape:groupmode="layer"
     inkscape:label="1">
    <g
       id="group-MC0">
      <path
         id="path2"
         d="m 0,0 c 147.59,0 267.233,-119.643 267.233,-267.232 0,-81.247 -36.265,-154.014 -93.481,-203.025 h -347.503 c -57.217,49.011 -93.482,121.778 -93.482,203.025 C -267.233,-119.643 -147.589,0 0,0"
         style="fill:#f8f6db;fill-opacity:1;fill-rule:evenodd;stroke:none"
         transform="matrix(1.3333333,0,0,-1.3333333,399.42707,53.5996)"
         clip-path="url(#clipPath3)" />
      <path
         id="path4"
         d="m 0,0 c 129.018,0 234.249,3.629 234.249,8.078 0,4.449 -105.231,8.076 -234.249,8.076 -129.02,0 -234.249,-3.627 -234.249,-8.076 C -234.249,3.629 -129.02,0 0,0"
         style="fill:#889f5c;fill-opacity:1;fill-rule:evenodd;stroke:none"
         transform="matrix(1.3333333,0,0,-1.3333333,399.4284,691.38027)"
         clip-path="url(#clipPath5)" />
      <path
         id="path6"
         d="m 370.44,158.52 h 50.889 V 93.274 H 370.44 Z m -215.671,0 h 50.889 V 93.274 h -50.889 z"
         style="fill:#889f5c;fill-opacity:1;fill-rule:evenodd;stroke:none"
         transform="matrix(1.3333333,0,0,-1.3333333,0,800)"
         clip-path="url(#clipPath7)" />
      <path
         id="path8"
         d="m 0,0 35.882,83.723 c 7.68,17.917 27.315,29.357 50.389,29.357 h 205.892 c 23.073,0 42.709,-11.44 50.388,-29.357 L 378.434,0 338.853,-64.521 H 39.581 Z"
         style="fill:#97c33a;fill-opacity:1;fill-rule:evenodd;stroke:none"
         transform="matrix(1.3333333,0,0,-1.3333333,131.77533,428.5964)"
         clip-path="url(#clipPath9)" />
      <path
         id="path10"
         d="m 119.227,119.982 h 337.644 v 119.9 H 119.227 Z"
         style="fill:#afd852;fill-opacity:1;fill-rule:evenodd;stroke:none"
         transform="matrix(1.3333333,0,0,-1.3333333,0,800)"
         clip-path="url(#clipPath11)" />
      <path
         id="path12"
         d="m 0,0 -18.797,50.409 2.02,51.833 h 117.126 l -23.561,19.517 -109.721,13.463 -93.564,-12.789 -34.33,-110.395 47.455,7.742 2.344,-69.29 z"
         style="fill:#fbca07;fill-opacity:1;fill-rule:evenodd;stroke:none"
         transform="matrix(1.3333333,0,0,-1.3333333,344.026,414.14587)"
         clip-path="url(#clipPath13)" />
      <path
         id="path14"
         d="M 0,0 -19.491,-2.665 V 28.723 H -40.022 V -5.471 l -20.162,-2.757 c 5.45,-6.96 16.053,-11.682 28.237,-11.682 16.552,0 30.179,8.712 31.947,19.91"
         style="fill:#f28f62;fill-opacity:1;fill-rule:evenodd;stroke:none"
         transform="matrix(1.3333333,0,0,-1.3333333,279.2148,236.70507)"
         clip-path="url(#clipPath15)" />
      <path
         id="path16"
         d="m 0,0 0.944,-19.318 -13.054,-1.967 -6.411,15.58 7,10.969 z"
         style="fill:#f28f62;fill-opacity:1;fill-rule:evenodd;stroke:none"
         transform="matrix(1.3333333,0,0,-1.3333333,332.03907,634.84893)"
         clip-path="url(#clipPath17)" />
      <path
         id="path18"
         d="M 0,0 C 4.717,17.646 22.846,28.13 40.494,23.415 58.143,18.699 68.627,0.569 63.91,-17.079 L 22.468,-171.746 c -4.714,-17.649 -22.846,-28.133 -40.494,-23.416 -17.649,4.715 -28.133,22.848 -23.416,40.496 z m -393.727,-17.079 c -4.715,17.648 5.767,35.778 23.416,40.494 17.647,4.715 35.777,-5.769 40.493,-23.415 l 41.443,-154.666 c 4.715,-17.648 -5.768,-35.781 -23.417,-40.496 -17.648,-4.717 -35.776,5.767 -40.493,23.416 z"
         style="fill:#c0e365;fill-opacity:1;fill-rule:evenodd;stroke:none"
         transform="matrix(1.3333333,0,0,-1.3333333,603.94267,388.57027)"
         clip-path="url(#clipPath19)" />
      <path
         id="path20"
         d="M 0,0 16.263,-37.822 6.43,-119.135 Z"
         style="fill:#2d2b2d;fill-opacity:1;fill-rule:evenodd;stroke:none"
         transform="matrix(1.3333333,0,0,-1.3333333,315.16667,457.01307)"
         clip-path="url(#clipPath21)" />
      <path
         id="path22"
         d="m 0,0 4.19,-15.35 -13.174,-3.664 -9.646,13.463 1.616,18.807 z"
         style="fill:#f28f62;fill-opacity:1;fill-rule:evenodd;stroke:none"
         transform="matrix(1.3333333,0,0,-1.3333333,502.74213,630.94013)"
         clip-path="url(#clipPath23)" />
      <path
         id="path24"
         d="m 0,0 36.321,-2.525 96.153,-8.542 42.433,-155.792 -18.63,-5.551 -47.543,75.861 3.784,42.776 H 24.206 Z"
         style="fill:#2d2b2d;fill-opacity:1;fill-rule:evenodd;stroke:none"
         transform="matrix(1.3333333,0,0,-1.3333333,269.5332,408.46093)"
         clip-path="url(#clipPath25)" />
      <path
         id="path26"
         d="m 0,0 h 75.641 l 10.955,-173.564 -18.52,-5.706 -35.551,92.676 17.396,29.047 h -65.362 z"
         style="fill:#46454b;fill-opacity:1;fill-rule:evenodd;stroke:none"
         transform="matrix(1.3333333,0,0,-1.3333333,216.57747,403.42973)"
         clip-path="url(#clipPath27)" />
      <path
         id="path28"
         d="m 0,0 -13.463,1.348 -14.809,-5.387 -3.702,24.568 9.093,8.295 14.804,-3.246 z"
         style="fill:#46454b;fill-opacity:1;fill-rule:evenodd;stroke:none"
         transform="matrix(1.3333333,0,0,-1.3333333,350.83067,683.9636)"
         clip-path="url(#clipPath29)" />
      <path
         id="path30"
         d="m 0,0 11.272,-17.032 6.462,-0.841 v 8.581 z"
         style="fill:#df784c;fill-opacity:1;fill-rule:evenodd;stroke:none"
         transform="matrix(1.3333333,0,0,-1.3333333,229.582,213.64187)"
         clip-path="url(#clipPath31)" />
      <path
         id="path32"
         d="M 0,0 2.389,20.104 19.335,22.98 23.81,31.209 45.056,18.025 69.147,11.035 70.25,5.887 56.274,-1.104 23.539,1.84 12.137,-3.676 Z"
         style="fill:#2d2b2d;fill-opacity:1;fill-rule:evenodd;stroke:none"
         transform="matrix(1.3333333,0,0,-1.3333333,482.3464,679.69533)"
         clip-path="url(#clipPath33)" />
      <path
         id="path34"
         d="m 0,0 9.254,-55.364 -18.173,-7.406 -16.996,14.305 -13.464,35.339 z"
         style="fill:#f5a683;fill-opacity:1;fill-rule:evenodd;stroke:none"
         transform="matrix(1.3333333,0,0,-1.3333333,263.10413,148.15107)"
         clip-path="url(#clipPath35)" />
      <path
         id="path36"
         d="m 0,0 6.833,25.092 -5.72,-1.179 0.504,11.107 -3.365,-9.256 -12.117,10.603 -19.016,-5.386 9.256,-0.672 -27.431,-16.996 -5.721,-11.443 5.721,2.019 20.864,-44.26 v 10.696 l 8.587,18.586 -4.376,13.126 21.035,1.009 2.693,4.377 z"
         style="fill:#2d2b2d;fill-opacity:1;fill-rule:evenodd;stroke:none"
         transform="matrix(1.3333333,0,0,-1.3333333,266.10867,166.1256)"
         clip-path="url(#clipPath37)" />
      <path
         id="path38"
         d="m 0,0 -18.344,-0.588 10.77,-5.386 6.479,1.767 z"
         style="fill:#ffffff;fill-opacity:1;fill-rule:evenodd;stroke:none"
         transform="matrix(1.3333333,0,0,-1.3333333,269.50133,209.96813)"
         clip-path="url(#clipPath39)" />
      <path
         id="path40"
         d="m 196.326,320.094 h 26.672 v 34.751 h -26.672 z"
         style="fill:#ffffff;fill-opacity:1;fill-rule:evenodd;stroke:none"
         transform="matrix(1.3333333,0,0,-1.3333333,0,800)"
         clip-path="url(#clipPath41)" />
      <path
         id="path42"
         d="M 0,0 7.74,6.394 23.896,3.702 23.559,-11.444 7.068,-16.827 -2.356,-14.136 Z"
         style="fill:#f28f62;fill-opacity:1;fill-rule:evenodd;stroke:none"
         transform="matrix(1.3333333,0,0,-1.3333333,236.18493,344.14973)"
         clip-path="url(#clipPath43)" />
      <path
         id="path44"
         d="m 0,0 c 23.73,0 43.081,19.353 43.081,43.081 0,23.728 -19.351,43.08 -43.081,43.08 -23.727,0 -43.079,-19.352 -43.079,-43.08 C -43.079,19.353 -23.727,0 0,0"
         style="fill:#ffffff;fill-opacity:1;fill-rule:evenodd;stroke:none"
         transform="matrix(1.3333333,0,0,-1.3333333,468.43093,196.7584)"
         clip-path="url(#clipPath45)" />
      <path
         id="path46"
         d="m 0,0 3.816,-37.258 13.012,-13.97 -20.643,10.066 z"
         style="fill:#2d2b2d;fill-opacity:1;fill-rule:evenodd;stroke:none"
         transform="matrix(1.3333333,0,0,-1.3333333,468.42973,87.037733)"
         clip-path="url(#clipPath47)" />
    </g>
  </g>
</svg>
